<mxfile host="app.diagrams.net" modified="2024-04-23T12:42:40.499Z" agent="Mozilla/5.0 (X11; Linux x86_64; rv:125.0) Gecko/20100101 Firefox/125.0" version="24.2.3" etag="jT3YvTSicZF4yAWlrOtd" type="github">
  <diagram name="Page-1" id="bPHufoKZj0z37Hay3KEP">
    <mxGraphModel>
      <root>
        <mxCell id="0" />
        <mxCell id="1" parent="0" />
      </root>
    </mxGraphModel>
  </diagram>
</mxfile>
